<?xml version="1.0" encoding="UTF-8" standalone="no"?>
<?xml-stylesheet href="styles/svgstyle.css" type="text/css"?>
<!DOCTYPE svg PUBLIC "-//W3C//DTD SVG 1.1//EN" "http://www.w3.org/Graphics/SVG/1.1/DTD/svg11.dtd">
<svg
   xmlns:dc="http://purl.org/dc/elements/1.1/"
   xmlns:cc="http://creativecommons.org/ns#"
   xmlns:rdf="http://www.w3.org/1999/02/22-rdf-syntax-ns#"
   xmlns:svg="http://www.w3.org/2000/svg"
   xmlns="http://www.w3.org/2000/svg"
   xmlns:xlink="http://www.w3.org/1999/xlink"
   xmlns:sodipodi="http://sodipodi.sourceforge.net/DTD/sodipodi-0.dtd"
   xmlns:inkscape="http://www.inkscape.org/namespaces/inkscape"
   class="map"
   version="1.1"
   preserveAspectRatio="xMidYMid meet"
   viewBox="0 0 400 373"
   id="svg3472"
   inkscape:version="0.91 r13725"
   sodipodi:docname="mapka.svg"
   ng-controller="SVGController as svg">
   <script xlink:href="/scripts/svgfunctions.js" ></script>
   <script xlink:href="bower_components/angular/angular.js"></script>
  <metadata
     id="metadata3606">
    <rdf:RDF>
      <cc:Work
         rdf:about="">
        <dc:format>image/svg+xml</dc:format>
        <dc:type
           rdf:resource="http://purl.org/dc/dcmitype/StillImage" />
        <dc:title></dc:title>
      </cc:Work>
    </rdf:RDF>
  </metadata>
  <sodipodi:namedview
     pagecolor="#ffffff"
     bordercolor="#666666"
     borderopacity="1"
     objecttolerance="10"
     gridtolerance="10"
     guidetolerance="10"
     inkscape:pageopacity="0"
     inkscape:pageshadow="2"
     inkscape:window-width="1212"
     inkscape:window-height="722"
     id="namedview3604"
     showgrid="false"
     inkscape:zoom="0.63270777"
     inkscape:cx="200"
     inkscape:cy="186.5"
     inkscape:window-x="0"
     inkscape:window-y="0"
     inkscape:window-maximized="0"
     inkscape:current-layer="svg3472" />
  <defs
     id="defs3474">
    <path id="province-dolnoslaskie"
       class="defaultProvince" 
           
       fill="#BEDA26"
       stroke="none"
       d="      M 14.25 -50.15      L 9.2 -53.35 5.1 -52.9 2.75 -51.65 2.75 -47.8 0.15 -46.5 -4.15 -48.7 -4.15 -51.65 -11.7 -55.55 -11.7 -52.75 -16.1 -49.7 -18.1 -41.4 -22.95 -39.4 -27.7 -32.45 -32.1 -37.9 -36.05 -37.9 -38.3 -31.6 -41.35 -33.7 -43.35 -33.7 -46.55 -32.7 -48.45 -30.6 -53.1 -30.8 -53.1 -27.25      Q -53.1 -27.05 -53.05 -26.95      L -50.75 -23.5 -57.4 -3.75 -60.8 0.35      Q -60.9 0.45 -60.9 0.65 -61 0.75 -60.8 0.9      L -59.9 2.55      Q -59.8 2.75 -59.6 2.85 -59.5 2.85 -59.35 2.85      L -57.3 2.4 -55.15 3.65      Q -55.05 3.75 -54.75 3.65      L -52.85 3.2      Q -52.65 3.2 -52.55 3 -52.5 2.95 -52.5 2.65      L -52.5 -0.8 -51.4 -3.85      Q -51.4 -3.9 -51.4 -4 -51.4 -4.1 -51.45 -4.3      L -52.55 -5.85 -50.4 -6.2 -48.35 -4.75      Q -48.2 -4.65 -48.1 -4.65 -47.9 -4.65 -47.8 -4.75      L -46.1 -6.1 -45.35 -4.3      Q -45.25 -4.1 -45.05 -4 -45 -3.9 -44.7 -4      L -43.05 -4.65 -41.7 -2.8 -42.6 -1.25      Q -42.7 -1.2 -42.7 -1.1 -42.7 -1 -42.7 -0.9      L -40.95 4.05      Q -40.85 4.2 -40.7 4.3      L -38.6 5.3 -39.05 8.15      Q -39.05 8.25 -38.95 8.4 -38.95 8.5 -38.85 8.6      L -38.15 9.15      Q -38.05 9.25 -37.85 9.35 -37.65 9.35 -37.6 9.25      L -35.2 7.8 -30.25 9.6 -27 11.35 -24.8 13      Q -24.7 13.1 -24.6 13.1 -24.5 13.1 -24.4 13.1      L -20.85 12.35 -18.65 16.35      Q -18.65 16.55 -18.5 16.55 -18.4 16.65 -18.2 16.65      L -14.2 16 -13.45 18.75 -13.45 20.3      Q -13.45 20.5 -13.25 20.55 -13.2 20.75 -13.1 20.85      L -11.15 21.3      Q -11.05 21.3 -11 21.3 -10.8 21.2 -10.7 21.1      L -8.35 18.55 -6.25 20      Q -6.15 20 -5.95 20      L -4.6 20      Q -4.5 20 -4.4 20 -4.2 19.95 -4.2 19.85      L -3.2 18.45 0.45 18.45 4.1 23.15 3 24.95      Q 2.8 25.05 2.8 25.15      L 2.8 27.05 1.1 28.55 -0.45 27.9      Q -0.65 27.9 -0.75 27.9 -0.95 27.9 -1 28      L -4.75 30.9      Q -4.85 31 -4.85 31.1      L -5.75 33.1      Q -5.85 33.2 -5.75 33.35 -5.75 33.55 -5.6 33.65      L -1.2 36.85      Q -1.1 36.95 -0.95 36.95      L 0.55 36.95 0.55 38.05      Q 0.55 38.1 0.65 38.3      L 1.8 40.5      Q 1.9 40.6 2 40.7 2.1 40.7 2.25 40.7      L 4.2 40.7 8.2 46.6 8.2 50.45      Q 8.2 50.75 8.4 50.85      L 11.8 54.55      Q 11.85 54.65 12.05 54.75      L 15.35 55.5      Q 15.5 55.6 15.6 55.5 15.8 55.4 15.9 55.2      L 16.7 53.3 17.65 53.3      Q 17.7 53.3 17.9 53.2 18 53.2 18 53.1      L 20.75 49.35 22.4 49.75      Q 22.55 49.75 22.75 49.75 22.95 49.65 23 49.45      L 23.45 48.1 26.65 47.1 28.15 47.1      Q 28.3 47.1 28.4 47 28.5 46.9 28.6 46.7 28.7 46.6 28.7 46.55      L 27.7 42.25      Q 27.7 42.05 27.5 42.05 27.5 41.85 27.4 41.85      L 25.4 40.75 23.95 36.2      Q 23.95 36.1 23.85 36      L 22.65 34.65 26.95 30.8 30.25 30.25 30.25 26.5 32.05 23.85 37.45 22.85 38.35 12.7 41.3 11.15 45.95 5.05 45.95 1 47.95 1 49.35 -2 48.6 -5.2 51.55 -6.85 50.35 -11.05 52.1 -14.25 55.75 -11.6 58.1 -13.05 60.95 -13.05 57.95 -16.8 59.2 -20.2 56.95 -24.1 58.2 -26.2 56.95 -28.95 50.35 -26.6 49.35 -32.9 52.35 -37.75 44.4 -43.15 37.35 -42.4 37.35 -38.55 27.05 -37.1 22.3 -39.4 20.1 -42.95 16.9 -42.95 14.25 -45.4 15.9 -47.05 14.25 -50.15 Z" />
    <path id="province-kujawsko_pomorskie"
       class="defaultProvince"
       
       fill="#BEDA26"
       stroke="none"
       d="      M 28.65 -32.05      L 23.6 -35.7 20.75 -36.8 15.45 -34.6 9.05 -37.2 11.45 -42.1 9.8 -42.1 4.05 -41 1.4 -38.65 0.2 -40.65 1.05 -42.3 -0.5 -42.3 -2.8 -41.1 -9.4 -42.3 -8.55 -44.4 -9.95 -45.5 -15.8 -46.95 -20.25 -44.85 -22.2 -46.6 -25.4 -46.6 -24.2 -43.85 -27.05 -42.1 -30.05 -42.1 -30.85 -36.45 -32.8 -35.1 -38.8 -38 -43.2 -29.6 -43.85 -29.05 -47.3 -25.55 -48.8 -21.2 -41.95 -17.05 -41.95 -13.6 -45.75 -11.7 -42.85 -6.45 -45.3 -2.35 -46.6 3.05 -43.4 3.05 -39.45 6.4 -39.45 13.75 -43.85 16.45 -39.45 22.3 -34.6 21.3 -33.6 24.5 -25 25.7 -23.55 28.9 -17 31.35 -12.3 35.05 -4.25 32.1 -4.25 34.75 0.4 34.75 4.8 38.4 10.65 45 17.75 43.05 22.25 47 23.6 44.55 29.2 44.55 29.2 43 32.4 43 30.2 37.95 35.05 32.85 33.1 32.85 33.1 31.1 38.95 28.15 35.6 26.45 37.5 21.05 40.4 21.05 40.4 18.4 36.3 12.75 40.15 11 37.3 5.7 41.6 5.7 41.6 3.2 45.65 4.3 46.45 0.2 44.55 -0.45 44.55 -4 48.85 -7.75 48.85 -12.85 46.55 -13.95 47.35 -17.25 44.55 -20.1 39.8 -19 34.2 -23.65 31.65 -23.65 29.55 -23 27.35 -30.6 28.65 -32.05 Z" />
    <path id="province-lubelskie"
       class="defaultProvince"
       
       fill="#BEDA26"
       stroke="none"
       d="      M 7.35 -65.25      L 7.1 -64.95 1.8 -60.2 3.9 -57.75 1.3 -57.3 -1.35 -55.3 -3.6 -50.35 -10.75 -53 -12.3 -51.8 -12.3 -49.25 -19.9 -49.25 -24.65 -46.8 -26.4 -47.95 -35.25 -44.95 -38.6 -46.25 -44.3 -42.5 -42.35 -38.9 -44 -34.45 -40.55 -31.25 -44.3 -28.6 -42 -25.1 -47.1 -21.1 -52.35 -22.1 -50.6 -16.6 -44.3 -15.5 -43.2 -8.1 -46.05 -6.4 -43.45 -4 -44.3 -0.55 -42.85 1.85 -44.85 9.9 -43.3 17.4 -44.45 19.05 -42.85 27.55 -40.55 33.55 -37.15 34.85 -32.4 31.2 -29.55 33.85 -26.75 35.05 -29.2 40.4 -25 43.35 -12.85 46.45 -11.2 52.3 -16.6 54.05 -17.5 56.95 -13.5 60.55 -6.7 61 -6.7 63.9 0.6 63.25 2.6 62.7 7.55 63.45 14.2 56.6 16.6 58.05 21.5 55.15 22.45 58.5 24.55 58.95 23.8 62 26.8 62 28.9 65.3 33.4 60.35 35.15 60.35      Q 35.3 60.35 35.4 60.25 35.5 60.15 35.6 60.05 35.7 59.9 35.6 59.8 35.05 56.25 40.05 54.75      L 46.4 54.75      Q 46.45 54.75 46.65 54.7 46.75 54.7 46.85 54.5      L 49.1 50.45      Q 49.2 50.3 49.2 50.2      L 49.2 47      Q 52.15 47 52.4 43.9      L 52.4 43.8 51.5 39.05 51.5 38.95 49.4 33.95      Q 49.3 33.75 49.2 33.65      L 47.4 32.75 47.4 30.9      Q 47.4 30.75 47.2 30.55 47.1 30.45 46.95 30.45      L 44.45 30      Q 44.1 29 44.3 28.35 44.55 27.6 45.65 27.25      L 48.55 27.25      Q 48.65 27.25 48.75 27.25 48.85 27.15 48.95 27.05      L 51.3 24.4      Q 51.5 24.35 51.5 24.15 51.5 23.95 51.5 23.9 51.4 23.8 51.3 23.7      L 44.2 18.95 41.65 15.9 41.65 12.1      Q 41.65 12 41.55 11.9 41.55 11.8 41.45 11.7      L 38.5 9.15      Q 39.6 7.35 39.25 6.15 39.05 4.75 36.95 4.05 33.65 3.4 32.05 -1.8 32.05 -1.9 31.95 -2.1 31.85 -2.15 31.75 -2.15 29.75 -2.7 29.3 -3.8 29 -4.9 30.2 -6.65 31.55 -8.85 31.2 -10.4 30.85 -11.85 28.9 -12.85      L 27.9 -15.8      Q 27.8 -15.9 27.75 -15.95      L 25.15 -18.35 23.8 -29.25      Q 27 -33.5 25.9 -37.8      L 26.35 -44.4      Q 29.2 -50.45 24.35 -55.1 24.25 -55.2 24.15 -55.2 24.1 -55.2 23.9 -55.2 22.05 -54.9 21.05 -55.75 19.95 -56.65 19.85 -58.75 19.85 -58.95 19.8 -59 19.7 -59.1 19.6 -59.2 19.4 -59.3 19.25 -59.2 15.4 -58.2 12.4 -61.65      L 12.2 -61.75 12.1 -61.75      Q 7.55 -61.95 7.35 -65.25 Z" />
    <path id="province-lubuskie"
       class="defaultProvince"
       
       fill="#BEDA26"
       stroke="none"
       d="      M 22.6 -54.5      L 18.6 -54.5 12.85 -47.55 8.25 -46.55 3.25 -48.55 -4.55 -45.25 -4.55 -42.7 -12.75 -38.5 -20.15 -40.25 -21.45 -35.5 -27.5 -27 -30.6 -28.35 -33.7 -24.8 -31.3 -22.9 -32.7 -19.3      Q -32.7 -19.2 -32.7 -19.05 -32.7 -18.95 -32.6 -18.85      L -31.7 -17.75 -33.7 -14.45 -34.9 -13.9      Q -35.05 -13.9 -35.05 -13.85 -35.15 -13.75 -35.15 -13.65      L -35.9 -10.45      Q -36 -10.35 -35.9 -10.15      L -34.35 -3.6      Q -34.35 -3.5 -34.25 -3.4 -34.15 -3.3 -34.05 -3.2      L -29.6 -1.4 -30.3 1.55      Q -30.3 1.6 -30.2 1.8      L -29.85 2.8 -30.95 4.8      Q -31.05 4.9 -31.05 5.1      L -31.05 7.3      Q -31.05 7.4 -30.95 7.55      L -28.65 10.1 -30.15 12.85      Q -30.2 12.95 -30.2 13.15      L -30.2 18.25 -34.7 23.3      Q -34.8 23.35 -34.8 23.55      L -35.45 26.2      Q -35.45 26.3 -35.45 26.5 -35.45 26.55 -35.35 26.65      L -33.4 28.6 -33.4 32.25      Q -33.4 32.35 -33.4 32.5 -33.4 32.6 -33.35 32.6      L -30.85 35 -30.2 39.9 -31.7 41.65      Q -31.85 41.75 -31.85 41.85 -31.95 42 -31.85 42.2      L -30.75 44.65      Q -30.7 44.85 -30.5 44.95      L -29.2 45.5 -26 48.5      Q -25.9 48.6 -25.75 48.6 -25.65 48.7 -25.45 48.6      L -24.35 48.15 -22.25 50.7 -22.25 54.35 -17.6 54.55 -15.7 52.45 -12.5 51.45 -10.5 51.45 -7.45 53.55 -5.2 47.25 -1.25 47.25 3.15 52.7 7.9 45.75 12.75 43.75 14.75 35.45 19.15 32.4 19.15 29.6 26.7 33.5 26.7 36.45 31 38.65 33.6 37.35 33.6 33.5 35.95 32.25 32.75 25.1 29 26.75 24.8 24 24.8 16.45 21.9 19.35 19.3 18.05 19.3 12.95 14.75 10.4 16.75 -2.05 16.75 -6.25 13.95 -11.55 16.05 -17.2 14 -29.1 20.4 -30.3 20.4 -34.2 17.3 -35.1 22.35 -39.9 21.05 -46 22.15 -47.85 22.6 -54.5 Z" />
    <path id="province-lodzkie"
       class="defaultProvince"
       
       fill="#BEDA26"
       
       stroke="none"
       d="      M 27.5 -40.15      L 20.45 -45.75 16.25 -42.8 13.15 -43.8 9.85 -42.1 9.85 -44 4.55 -47.75 -1.05 -46.2 -2.3 -49 -5.5 -49 -5.5 -47.45 -11.1 -47.45 -13.85 -42.6 -11.1 -41.15 -13.1 -38.7 -17.95 -38.7 -20.4 -33.55 -17.95 -30.4 -25.7 -29.2 -24.55 -19.85 -27.55 -13.75 -36.3 -16.65 -40.15 -3.5 -40.15 6.75 -41.45 12.1 -46.75 10.2 -46.75 14.85 -52.4 14.85 -51.2 22.2 -48.4 22.8 -47.4 27.75 -47.4 29.85 -42.65 30.6 -36.25 34.15 -34.2 30.15 -32.05 31.5 -32.05 33.4 -27.35 35.7 -18.6 35.35 -16.85 33.25 -14.55 34.15 -11.1 37.1 -5.05 39.75 -2.8 36.35 0.8 38.25 4.65 46.2 9.65 44.85 14.85 49.05 16.05 47.5 19.45 43.95 19.45 35.8 21.65 35.8 26.3 41 28.75 34.9 24.8 32.4 26.75 25.4 31.7 26.75 36.8 24.85 36.8 22.65 39.7 22.65 41.2 18.5 43.65 17.25 42.65 14.85 47.05 7 44.4 6 41.65 -3.95 44.55 -6.45 49.95 -4.5 52.45 -7.35 47.5 -13.3 49.7 -16.2 43.85 -22.35 36.05 -22.35 32.3 -27.9 34.5 -29.85 34.5 -32.85 27.5 -36.7 27.5 -40.15 Z" />
    <path id="province-malopolskie"
       class="defaultProvince"
       
       fill="#BEDA26"
       stroke="none"
       d="      M 34.6 -31      L 33.5 -31 27 -30.45 19.7 -28.35 16.9 -24.15 6.2 -22.5 4.45 -23.95 5.1 -26.25 -0.3 -32.65 2.15 -34 -0.4 -40.5 -3.85 -41.5 -8 -40.85 -8.7 -42.95 -13.75 -43.25 -11.65 -39.95 -16.75 -37.85 -24.7 -37.85 -25.8 -35.35 -32.95 -34.55 -34.5 -30.8 -39.9 -28.8 -38.35 -25.4 -34.2 -23.5 -46 -13.35 -47.65 -8.8 -43.9 -6.5 -45 -0.65 -40.8 -0.65 -39.8 3.55 -33.85 5.65 -36.15 10.05 -32.3 13 -33 16.8 -30.55 19.1 -30.55 20.95      Q -30.55 21 -30.55 21.1      L -28.45 25.4      Q -28.45 25.6 -28.2 25.7      L -26.1 26.6 -26.1 28.5      Q -26.1 28.6 -26 28.8 -25.9 28.9 -25.8 28.95      L -22.05 30.25      Q -21.95 30.35 -21.85 30.35 -21.7 30.25 -21.6 30.15      L -20.4 29.15 -19.6 29.8 -19.6 35.85      Q -19.6 35.9 -19.5 36.1 -19.5 36.2 -19.3 36.2      L -18.65 36.75 -21.25 40.3      Q -21.35 40.4 -21.35 40.6 -21.35 40.65 -21.25 40.85      L -20.3 42.3      Q -20.3 42.4 -20.25 42.4 -20.15 42.5 -20.05 42.6      L -16.4 43.15 -16.2 43.15      Q -16.1 43.05 -16 43.05      L -13.45 40.95 -11.35 40.95 -9.1 43.15      Q -8.9 43.3 -8.7 43.3 -8.55 43.3 -8.45 43.15      L -6.6 41.7      Q -6.45 41.6 -6.45 41.4      L -4.5 35.35 -1.3 32.9 3 32.9      Q 3.25 32.9 3.35 32.7 3.45 32.65 3.45 32.35      L 3.45 29.6 6 30.05 7.35 30.05      Q 7.55 30.05 7.75 30 7.85 29.9 7.85 29.8      L 8.45 28.15 13.4 30.35      Q 13.6 30.45 13.75 30.45 13.95 30.35 14.05 30.25      L 15.25 28.5 17.15 29.05      Q 17.25 29.15 17.45 29.05 17.5 29.05 17.6 28.95      L 18.9 27.9 20.45 30.8      Q 20.55 30.9 20.65 31      L 23.3 32.65      Q 23.35 32.65 23.55 32.65      L 25.65 32.65 26.1 33.7      Q 26.2 33.8 26.3 33.9      L 27.65 35      Q 27.65 35.1 27.85 35.1 27.95 35.1 28.05 35.1      L 30.7 34.35 30.75 34.25      Q 30.85 34.1 30.95 34.1      L 32.4 31 35 30.35      Q 35.25 30.25 35.25 30.05      L 35.35 30.05      Q 35.55 30.05 35.6 30 35.9 29.9 35.9 29.6 35.9 29.45 35.8 29.25      L 34.35 27.4 36.9 26.4 38.55 27.5      Q 38.65 27.7 38.8 27.7      L 40.45 27.7      Q 40.65 27.7 40.75 27.6 40.85 27.5 40.9 27.4      L 42.75 24.5 45.85 26.3      Q 45.95 26.4 46.05 26.4 46.2 26.4 46.3 26.4      L 47.7 25.95 45.1 17.45 46.6 12.6 44.3 5.3 41.1 2.45 37.35 2.45 36.7 -0.65 39.65 -1.3 42.55 -5.05 36.15 -7.5 36.7 -11.15 37.65 -12.8 37.65 -15.7 35.25 -25.6 35.8 -28.35 39 -30.15 37.65 -33.8 34.6 -31 Z" />
    <path id="province-mazowieckie"
       class="defaultProvince"
       
       fill="#BEDA26"
       stroke="none"
       d="      M 5.15 -75.7      L 1.2 -74.9 -0.7 -75.55 -5.45 -73.15 -8.65 -69.4 -12.7 -71.7 -13.95 -68.05 -21.45 -68.05 -23.55 -63.95 -32.35 -62 -33.35 -56.15 -41.45 -56.8 -43.65 -55.45 -45.1 -57.15 -50.45 -56.45 -52.7 -60.45 -54.65 -57.9 -54.65 -55.7 -58.45 -56.8 -62.75 -53.05 -62.75 -49.5 -60.85 -48.85 -61.65 -44.75 -65.7 -45.85 -65.7 -43.35 -70 -43.35 -67.15 -38.05 -71 -36.3 -66.9 -30.65 -66.9 -28 -69.8 -28 -71.7 -22.6 -68.35 -20.9 -74.2 -17.95 -74.2 -16.2 -72.25 -16.2 -77.1 -11.1 -73.65 -3.25 -68.05 -4.8 -62.75 -1.05 -62.75 0.85 -59.45 -0.85 -56.35 0.15 -52.15 -2.8 -45.1 2.8 -45.1 6.25 -38.1 10.1 -38.1 13.1 -40.3 15.05 -36.55 20.6 -28.75 20.6 -22.9 26.75 -25.1 29.65 -20.15 35.6 -22.65 38.45 -28.05 36.5 -30.95 39 -28.2 48.95 -25.55 49.95 -29.95 57.8 -28.95 60.2 -25.3 60.2 -27.3 65.4 -23.2 65.4 -19.15 68.05 -18.25 71.15 -11.6 71.15 -3.55 68.35 0.85 74.9 6.15 74.9 12.25 79.5 18.65 76.1 22.5 77.1 26.35 74.9 25.15 69.25 27.15 61.2 25.7 58.8 26.55 55.35 23.95 52.95 26.8 51.25 25.7 43.85 19.4 42.75 17.65 37.25 22.9 38.25 28 34.25 25.7 30.75 29.45 28.1 26 24.9 27.65 20.45 25.7 16.85 31.4 13.1 34.75 14.4 43.6 11.4 45.35 12.55 50.1 10.1 57.7 10.1 57.7 7.55 59.25 6.35 66.4 9 68.65 4.05 71.3 2.05 73.9 1.6 71.8 -0.85 77.1 -5.6 71.25 -7 70.95 -8.7 67.85 -10.45 61 -10 52.4 -11.45 50.85 -18.5 46.45 -24.7 47.9 -27.2 47.2 -37.5 45.45 -38.05 42.9 -35.85 40.45 -37.9 41.45 -42.35 38.25 -43.65 36.75 -40.8 30.1 -41 28.35 -43.35 29 -48.1 23.95 -50.6 25.25 -53.7 21.4 -56.45 18.3 -56.45 13.1 -65.55 15.95 -69.8 12.35 -79.45 6.05 -77.8 5.15 -75.7 Z" />
    <path id="province-opolskie"
       class="defaultProvince"
       
       fill="#BEDA26"
       stroke="none"
       d="      M 36.5 -29.45      L 31.8 -31.75 31.8 -33.65 29.65 -35 27.6 -31 21.2 -34.55 16.45 -35.3 16.45 -37.4 11.55 -36.55 7.7 -33.3 5.4 -32.85 1 -34 2.75 -37.75 -2.1 -37.75 -4.45 -36.3 -8.1 -38.95 -9.85 -35.75 -8.65 -31.55 -11.6 -29.9 -10.85 -26.7 -12.25 -23.7 -14.25 -23.7 -14.25 -19.65 -18.9 -13.55 -21.85 -12 -22.75 -1.85 -28.15 -0.85 -29.95 1.8 -29.95 5.55 -33.25 6.1 -36.45 9.05 -34.35 10.15 -34.25 10.15 -31.15 11.4      Q -31.05 11.4 -30.95 11.4      L -28.3 11.4 -27.4 12.5      Q -27.3 12.6 -27.2 12.7 -27.15 12.8 -27.05 12.8      L -25.2 12.8 -25.2 14.05      Q -25.2 14.15 -25.1 14.35 -25.1 14.45 -24.95 14.5      L -21.55 16.8      Q -21.45 16.8 -21.3 16.8      L -19.25 16.8 -19.25 19.9      Q -19.25 20.1 -19.2 20.2 -19 20.35 -18.9 20.45 -18.7 20.45 -18.55 20.35      L -16.35 19.45 -14.6 21.45      Q -14.5 21.55 -14.35 21.65      L -14.15 21.65      Q -13.95 21.65 -13.95 21.55      L -12.95 20.65 -6.4 20.65      Q -6.3 20.65 -6.2 20.55 -6.1 20.55 -6 20.45      L -3.55 17.45 -2.55 18.45 -3.55 20.9      Q -3.65 21.1 -3.55 21.3 -3.55 21.35 -3.45 21.45 -3.35 21.55 -3.25 21.65      L -2.25 21.9 -2.7 23.75 -6.1 25.4 -9.3 26.3      Q -9.5 26.3 -9.6 26.5 -9.65 26.6 -9.65 26.75 -9.65 26.95 -9.6 27.05      L -6.55 31.15      Q -6.45 31.15 -6.4 31.25 -6.3 31.25 -6.1 31.25      L -3.75 31.25 -2.7 33.8 -2.65 33.9 -0.6 36.75 -0.6 36.8 1.95 38.9      Q 2.1 38.9 2.2 39 2.3 39 2.4 39      L 6.3 38.1      Q 6.4 38.1 6.5 38      L 10.25 34.45 11.45 27.2 18.1 26.4 20.3 23 25.7 21.3 23.3 8.6 27.05 2.55 32.45 2.55 33.1 -0.1 29.65 -2.95 27.55 -6.6 32.35 -10.6 28.55 -12.8 31.35 -14.65 35 -16.2 35 -21.75 36.5 -29.45 Z" />
    <path id="province-podkarpackie"
       class="defaultProvince"
       
       fill="#BEDA26"
       stroke="none"
       d="      M 37 -31      L 34.6 -32.45 27.95 -25.6 23 -26.35 21 -25.8 13.7 -25.15 13.7 -28.05 6.9 -28.5 2.9 -32.1 3.8 -35 9.2 -36.75 7.55 -42.6 -4.6 -45.7 -8.8 -48.65 -6.35 -54 -9.15 -55.2 -12 -57.85 -16.75 -54.2 -20.15 -55.5 -23.15 -47.7 -27.45 -44.35 -31.95 -37.95 -36.95 -35.75 -38.15 -32.45 -41.05 -32.2 -46.9 -26.95 -45.55 -23.3 -48.75 -21.5 -49.3 -18.75 -46.9 -8.85 -46.9 -5.95 -47.85 -4.3 -48.4 -0.65 -42 1.8 -44.9 5.55 -47.85 6.2 -47.2 9.3 -43.45 9.3 -40.25 12.15 -37.95 19.45 -39.45 24.3 -36.85 32.8 -34.4 34.2      Q -34.2 34.25 -34.05 34.25      L -26.9 32.35 -24.45 33.55 -21.7 37      Q -21.6 37.1 -21.35 37.2 -21.25 37.2 -21.05 37.1      L -18.15 35.35 -13.3 37.45 -10.8 41.2 -10.2 45.5      Q -10.2 45.7 -10.1 45.8 -10 45.9 -9.8 45.95      L -2.15 48.45 -1.75 49.8      Q -1.7 49.9 -1.6 50 -1.5 50.15 -1.2 50.15      L 3.35 50.15 9.3 52.65      Q 9.4 52.65 9.45 52.65      L 14.05 52.65      Q 17.15 56 21.7 55      L 25.65 57.75      Q 25.85 57.85 26 57.85 26.2 57.75 26.3 57.65 26.4 57.5 26.4 57.3      L 26.4 51.75      Q 26.4 51.65 26.4 51.55 26.4 51.35 26.3 51.35      L 19.45 45.8 21.8 40.2      Q 21.8 40.05 21.8 39.95 21.8 39.85 21.7 39.75      L 20.25 37.1 19.7 32.7      Q 19.7 32.55 19.6 32.45      L 17.7 30.5 18.25 27.6      Q 18.25 27.4 18.25 27.3      L 16.5 24.5 16.5 21.55 18.9 18.1      Q 19 18.1 19 18 19.05 18 19.25 17.9 19.35 17.8 19.45 17.65      L 21 13.35 22.9 13.35      Q 23 13.35 23.2 13.25 23.25 13.25 23.35 13.15      L 24.85 10.7      Q 24.9 10.5 24.85 10.3      L 24.45 8.05 34.8 -5.6 34.9 -5.6 37.25 -10.45 49.3 -23.75 47.2 -27.05 44.2 -27.05 44.95 -30.1 42.85 -30.55 41.9 -33.9 37 -31 Z" />
    <path id="province-podlaskie"
       class="defaultProvince"
       
       fill="#BEDA26"
       stroke="none"
       d="      M 6.8 -62.7      L 4.95 -65.9      Q 4.85 -66.05 4.7 -66.05 0.3 -67.9 -3.15 -67.7 -3.25 -67.7 -3.45 -67.7 -3.55 -67.65 -3.55 -67.55      L -5.65 -64.9 -4.55 -62.5 -4.55 -59.5 -7.75 -57.95 -11.75 -57.4 -15.35 -53.55 -13.95 -50.25 -11.2 -50.25 -10 -47.6 -10.5 -44.95 -2.45 -35.35 -9 -23.85 -14.4 -22 -30.95 -8.4 -34.8 -8.4 -35.35 -6.5 -38.35 -5.55 -42.1 -7.4 -46.6 -6.1 -43 3.55 -45.85 7.8 -40.65 16.9 -37.55 16.9 -33.7 19.65 -35 22.75 -29.95 25.25 -30.6 30 -28.85 32.35 -22.2 32.55 -20.7 29.7 -17.5 31 -18.5 35.45 -16.05 37.5 -13.5 35.3 -11.75 35.85 -11.05 46.15 -12.5 48.65 -8.1 54.85 -6.55 61.9 2.05 63.35 8.9 62.9 12 64.65 12.3 66.35 18.15 67.75 18.4 67.45 22.9 59.05 22.9 58.95      Q 27 48.35 36.7 45.25      L 40.5 45.25      Q 40.7 45.25 40.8 45.25      L 46.3 39.5      Q 46.35 39.4 46.35 39.2 47.35 32.2 45 24.7      L 45.75 21.4      Q 45.75 21.3 45.65 21.05      L 42.6 15.9 44.45 10.25      Q 44.55 10.05 44.45 9.95 44.35 9.8 44.25 9.8      L 41.5 7.3 39.05 2.85 29 -23.4 29.1 -23.4 25.15 -40.5      Q 25.15 -40.55 25.05 -40.65      L 23.35 -42.85 25.8 -45.6      Q 25.9 -45.8 25.9 -45.85 25.9 -45.95 25.9 -46.15      L 23.05 -55.2      Q 23.05 -55.3 22.9 -55.4 22.8 -55.55 22.6 -55.55      L 20.95 -55.55      Q 17.65 -60.85 13.9 -59.7      L 10.1 -63.35      Q 10 -63.4 9.9 -63.4 9.7 -63.5 9.65 -63.4      L 6.8 -62.7 Z" />
    <path id="province-pomorskie"
       class="defaultProvince"
       
       fill="#BEDA26"
       stroke="none"
       d="      M 25.1 -33.2      Q 25 -33.3 24.9 -33.4      L 10.65 -42.35 10.55 -42.35      Q 7.8 -43.9 5.45 -43.9      L 1.7 -43.9      Q -5.7 -44.55 -13.95 -42.2 -15.8 -41.55 -17.25 -41.1 -21.25 -39.8 -22.25 -39.8 -32.05 -39.8 -40.55 -33.75 -44.55 -30.75 -46.3 -29.65 -49.15 -27.9 -51.4 -28 -53.5 -28.2 -55.35 -27.9      L -52.7 -21.45 -50.25 -20.25 -48.7 -14.85 -50.25 -13.4 -51.15 -10.45 -48.95 -7.15 -54.7 -4.35 -51.15 3.7 -51.95 10.55 -45 16.3 -45 17.85 -48.3 17.85 -49.4 19.25 -46.85 23.45 -49.4 27.3 -49.4 33.05 -46.2 40.45 -33.7 41 -30.95 44.1 -30.3 43.55 -25.9 35.15 -19.9 38.05 -17.95 36.7 -17.15 31.05 -14.15 31.05 -11.3 29.3 -12.5 26.55 -9.3 26.55 -7.35 28.3 -2.9 26.2 2.95 27.65 4.35 28.75 3.5 30.85 10.1 32.05 12.4 30.85 13.95 30.85 13.1 32.5 14.3 34.5 16.95 32.15 22.7 31.05 24.35 31.05 21.95 35.95 28.35 38.55 33.65 36.35 36.5 37.45 40.25 33.5 41.45 29.5 43.55 27.55 44.25 24 46 22.9 50.65 25.55 55.35 15.95 51.4 14.85 46.2 15.95 46.2 13.5 48 11.65 40 8.1 41.15 5.8 39.9 3.7 41.55 -0.7 44.45 -1.4 42.15 -4.8 42.8 -6.8 39.7 -12.55 27.2 -12.55 24.7 -13.75      Q 24.6 -13.85 24.45 -13.85      L 22.35 -13.85 20.35 -16.05      Q 20.25 -16.15 20.15 -16.15      L 16.3 -17.5 16.3 -25.45      Q 16.3 -25.55 16.3 -25.65      L 14.55 -30.3      Q 14.5 -30.4 14.4 -30.5 14.3 -30.65 14.1 -30.65      L 13.2 -30.65 12.65 -34.95      Q 12.65 -35.15 12.55 -35.25      L 10.55 -37.25 11.1 -38.25 23 -30.75 24.15 -28.2      Q 24.25 -28 24.35 -28      L 25.45 -27.35      Q 25.55 -27.3 25.7 -27.3 25.8 -27.3 25.9 -27.35      L 27.1 -27.85      Q 27.2 -27.9 27.25 -28 27.25 -28.2 27.25 -28.3      L 27.25 -29.95      Q 27.25 -30 27.2 -30.1      L 25.1 -33.2 Z" />
    <path id="province-slaskie"
       class="defaultProvince"
       
       fill="#BEDA26"
       stroke="none"
       d="      M 14.6 -49.8      L 11 -51.7 8.75 -48.3 2.7 -50.95 -0.75 -53.9 -3.05 -54.8 -4.8 -52.7 -13.55 -52.35 -15.05 -44.65 -15.05 -39.1 -18.7 -37.55 -21.5 -35.7 -17.7 -33.5 -22.5 -29.5 -20.4 -25.85 -16.95 -23 -17.6 -20.35 -23 -20.35 -26.75 -14.3 -24.35 -1.6 -29.75 0.1 -31.95 3.5 -38.6 4.3 -39.8 11.55 -37.7 15.55      Q -37.7 15.65 -37.5 15.75 -37.4 15.85 -37.35 15.85      L -34.95 15.85 -34.4 17.2      Q -34.3 17.4 -34.2 17.5 -34.15 17.5 -33.95 17.5      L -32.1 17.5 -30.45 19.75      Q -30.3 19.95 -30.1 20.05 -29.9 20.05 -29.75 19.85 -29.55 19.75 -29.55 19.6      L -29.55 19.5 -25.15 19.5 -21.4 21.95      Q -21.25 22.05 -21.15 22.05 -21.05 22.05 -20.9 21.95      L -19.15 20.95 -17.6 24.05 -18.95 25.55      Q -19.05 25.6 -19.05 25.7 -19.05 25.9 -19.05 26      L -16.75 33.65      Q -16.65 33.75 -16.65 33.85 -16.6 33.95 -16.5 34.05      L -11.85 36.15      Q -11.75 36.15 -11.65 36.15      L -9.35 36.15 -9.35 37.5 -9.25 37.6 -7.25 46      Q -7.15 46.2 -7.05 46.3 -7 46.35 -6.8 46.35      L -2.3 47.1 -2.3 53.85      Q -2.3 54.05 -2.25 54.15 -2.15 54.25 -1.95 54.3      L 0.95 54.8      Q 1.15 54.85 1.35 54.8 1.45 54.6 1.5 54.5      L 2.15 52.65 3 54.05      Q 3.05 54.25 3.15 54.3 3.35 54.3 3.55 54.3      L 7.25 53.05      Q 7.45 53.05 7.55 52.95 7.65 52.85 7.65 52.65 7.65 52.6 7.65 52.5      L 7.25 51.4 9.3 49.85      Q 9.4 49.75 9.45 49.55 9.45 49.4 9.45 49.3      L 9 48 10 46 14.5 45.45      Q 14.6 45.35 14.7 45.25 14.85 45.2 14.85 45.1      L 15.3 43.35 18.05 40.8 18.45 41.05 19.15 37.25 15.3 34.3 17.6 29.9 11.65 27.8 10.65 23.6 6.45 23.6 7.55 17.75 3.8 15.45 5.45 10.9 17.25 0.75 13.1 -1.15 11.55 -4.55 16.95 -6.55 18.5 -10.3 25.65 -11.1 26.75 -13.6 34.7 -13.6 39.8 -15.7 37.05 -20 31.3 -21.45 35.6 -27.05 33.6 -31.25 29.05 -32.5 29.85 -35.7 34.35 -37.1 34.35 -39.35 29.85 -40.55 28.65 -39 23.45 -43.2 18.45 -41.85 14.6 -49.8 Z" />
    <path id="province-swietokrzyskie"
       class="defaultProvince"
       
       fill="#BEDA26"
       stroke="none"
       d="      M 20.1 -21.55      L 14.8 -21.55 10.4 -28.1 2.35 -25.3 -4.3 -25.3 -5.2 -28.4 -9.25 -31.05 -13.35 -31.05 -11.35 -36.25 -15 -36.25 -17.45 -35 -18.95 -30.85 -21.85 -30.85 -21.85 -28.65 -26.95 -26.75 -31.9 -28.1 -33.85 -21.1 -29.9 -18.6 -32.35 -12.5 -37 -17.7 -39.2 -17.7 -39.2 -9.55 -42.6 -6 -38.1 -4.8 -38.1 -2.55 -42.6 -1.15 -43.4 2.05 -38.85 3.3 -36.85 7.5 -41.15 13.1 -35.4 14.55 -34.75 15.55 -29.7 15.85 -29 17.95 -24.85 17.3 -21.4 18.3 -18.85 24.8 -21.3 26.15 -15.9 32.55 -16.55 34.85 -14.8 36.3 -4.1 34.65 -1.3 30.45 6 28.35 12.5 27.8 13.6 27.8 22.5 19.75 25.4 19.5 26.6 16.2 31.6 14 36.1 7.6 40.4 4.25 43.4 -3.55 41.1 -9.55 39.5 -18.05 40.65 -19.7 40.3 -21.55 36.45 -19.35 32.6 -20.35 26.2 -16.95 20.1 -21.55 Z" />
    <path id="province-warminsko_mazurskie"
       class="defaultProvince"
       
       fill="#BEDA26"
       stroke="none"
       d="      M 68 -36.9      L 66.9 -39.3 12.7 -36 -45.4 -41.5 -50.9 -43.5      Q -51.1 -43.5 -51.2 -43.5 -51.25 -43.5 -51.35 -43.3      L -56.95 -38.3 -66.9 -35.8 -63.8 -30.05 -64.45 -28.05 -62.15 -24.65 -65.05 -23.95 -66.7 -19.55 -65.45 -17.45 -66.6 -15.15 -58.6 -11.6 -60.4 -9.75 -60.4 -7.3 -55.2 -8.4 -51.25 -7.3 -55.95 2.3 -60.6 -0.35 -62.35 0.75 -63.05 4.3 -65.15 6.25 -66.35 10.25 -70.1 14.2 -65.05 17.85 -66.35 19.3 -64.15 26.9 -62.05 26.25 -59.5 26.25 -53.9 30.9 -49.15 29.8 -46.35 32.65 -47.15 35.95 -44.85 37.05 -44.85 42.15 -41.05 43.25 -41.05 41.05 -39.1 38.5 -36.85 42.5 -31.5 41.8 -30.05 43.5 -27.85 42.15 -19.75 42.8 -18.75 36.95 -9.95 35 -7.85 30.9 -0.35 30.9 0.9 27.25 4.95 29.55 8.15 25.8 12.9 23.4 14.8 24.05 18.75 23.25 19.65 21.15 30.45 18.2 34.2 20.05 37.2 19.1 37.75 17.2 41.6 17.2 58.15 3.6 63.55 1.75 70.1 -9.75 62.05 -19.35 62.55 -22 61.35 -24.65 58.6 -24.65 57.2 -27.95 60.8 -31.8 64.8 -32.35 68 -33.9 68 -36.9 Z" />
    <path id="province-wielkopolskie"
       class="defaultProvince"
       
       fill="#BEDA26"
       stroke="none"
       d="      M 1.9 -28.35      L 1.9 -35.7 -2.05 -39.05 -5.25 -39.05 -3.95 -44.45 -1.5 -48.55 -4.4 -53.8 -0.6 -55.7 -0.6 -59.15 -7.45 -63.3 -5.95 -67.65 -2.5 -71.15 -5.25 -74.25 -17.75 -74.8 -20.95 -82.2 -25.7 -80.85 -28.9 -72.5 -38.05 -72.5 -36.95 -66.3 -27.65 -60.8 -31.55 -53.95 -33.65 -55.35 -39.9 -50.95 -43.45 -43.7 -51.6 -40.6 -56.7 -42.65 -57.8 -40.8 -56.5 -34.7 -61.55 -29.9 -58.45 -29 -58.45 -25.1 -64.85 -23.9 -62.8 -12 -64.9 -6.35 -62.1 -1.05 -62.1 3.15 -64.1 15.6 -59.55 18.15 -59.55 23.25 -56.95 24.55 -54.05 21.65 -54.05 29.2 -49.85 31.95 -46.1 30.3 -42.9 37.45 -38.8 37 -33.75 40.2 -32.1 43.3 -33.75 44.95 -31.1 47.4 -27.9 47.4 -25.7 50.95 -20.95 53.25 -10.65 51.8 -10.65 47.95 -3.6 47.2 4.35 52.6 1.35 57.45 2.35 63.75 8.95 61.4 10.2 64.15 8.95 66.25 11.2 70.15 9.95 73.55 12.95 77.3 14.95 77.3 13.2 81.05 17.6 82.2 19.9 81.75 23.75 78.5 28.65 77.65 27.65 72.7 24.85 72.1 23.65 64.75 29.3 64.75 29.3 60.1 34.6 62 35.9 56.65 35.9 46.4 39.75 33.25 48.5 36.15 51.5 30.05 50.35 20.7 58.1 19.5 55.65 16.35 58.1 11.2 62.95 11.2 64.95 8.75 62.2 7.3 63.6 4.9 59.1 0.95 52 2.9 46.15 -3.7 41.75 -7.35 37.1 -7.35 37.1 -10 29.05 -7.05 24.35 -10.75 17.8 -13.2 16.35 -16.4 7.75 -17.6 6.75 -20.8 1.9 -19.8 -2.5 -25.65 1.9 -28.35 Z" />
    <path id="province-zachodniopomorskie"
       class="defaultProvince" 
       
       fill="#BEDA26"
       stroke="none"
       
       d="      M 50.95 -54.1      L 48.5 -55.3 45.85 -61.75      Q 41 -61.05 38 -57.3 25.75 -40 15.5 -41.85 15.3 -41.95 15.25 -41.75      L 9.2 -39.35 1.9 -37.55 -0.65 -37.55      Q -0.75 -37.55 -0.85 -37.55      L -5.05 -36.8 -5.15 -36.8 -10.55 -34.45 -28.3 -29.6 -28.35 -29.6 -36.95 -26.05 -37.05 -26.05 -40.7 -23.65 -44.2 -23.2 -48.1 -24.3      Q -48.3 -24.3 -48.4 -24.3 -48.55 -24.2 -48.65 -24 -48.75 -23.95 -48.75 -23.75      L -48.75 -19.9 -46.75 -14.35 -47.3 -13.4      Q -47.4 -13.35 -47.4 -13.15      L -47.4 -5.55      Q -47.4 -5.35 -47.3 -5.3      L -45.65 -3.65 -45.65 -1.1 -46.55 0.55      Q -46.55 0.65 -46.55 0.75 -46.55 0.85 -46.55 0.95      L -44.35 6.5 -44.35 7.95 -44.25 8.15 -43.35 12.1 -43.35 16.1      Q -43.35 16.2 -43.25 16.3      L -41.7 19.3 -45 24.4      Q -45.1 24.5 -45.1 24.7      L -45.1 27.7 -46.45 32.2 -54.5 37.4      Q -54.6 37.4 -54.7 37.5 -54.7 37.7 -54.7 37.75      L -54.7 43.15 -56.15 45.7      Q -56.15 45.8 -56.15 46 -56.15 46.1 -56.05 46.25 -56.05 46.35 -55.9 46.45      L -52.7 47.8 -50.5 50.75      Q -50.4 50.95 -50.2 50.95      L -48.1 51.65 -43.15 58.95 -43.1 59.05 -39.8 61.8 -36.7 58.25 -33.6 59.6 -27.55 51.1 -26.25 46.35 -18.85 48.1 -10.65 43.9 -10.65 41.35 -2.85 38.05 2.15 40.05 6.75 39.05 12.5 32.1 16.5 32.1 16.05 38.75 21.15 40.8 29.3 37.7 32.85 30.45 39.1 26.05 41.2 27.45 45.1 20.6 35.8 15.1 34.7 8.9 43.85 8.9 47.05 0.55 51.8 -0.8 51.8 -6.55 54.35 -10.4 51.8 -14.6 52.9 -16 56.2 -16 56.2 -17.55 49.25 -23.3 50.05 -30.15 46.5 -38.2 52.25 -41 50.05 -44.3 50.95 -47.25 52.5 -48.7 50.95 -54.1 Z" />
  </defs>

  <defs >

  </defs>

  <g
     transform="matrix( 1, 0, 0, 1, 80.9,249.65) "
     id="g3492"
     ng-click="svg.afterClicked($event);">
    <g
       transform="matrix( 1, 0, 0, 1, 0,0) "
       id="g3494"
       >
      <use
         xlink:href="#province-dolnoslaskie"
         id="use3496" 
         />
    </g>
    <text
       id="province-dolnoslaskie-field"
       style="text-anchor: middle"
       transform="matrix( 1, 0, 0, 1, 10, 0)"
       class="provinceNames">Dolnośląskie</text>
  </g>
  <g
     transform="matrix( 1, 0, 0, 1, 170.25,117.2) "
     id="g3499"
     ng-click="svg.afterClicked($event);">
    <g
       transform="matrix( 1, 0, 0, 1, 0,0) "
       id="g3501">
      <use
         xlink:href="#province-kujawsko_pomorskie"
         id="use3503" />
    </g>
    <text
       id="province-kujawsko_pomorskie-field"
       style="text-anchor: middle"
       class="provinceNames">Kujawsko-Pomorskie</text>
  </g>
  <g
     transform="matrix( 1, 0, 0, 1, 347.55,225.6) "
     id="g3506"
     ng-click="svg.afterClicked($event);">
    <g
       transform="matrix( 1, 0, 0, 1, 0,0) "
       id="g3508">
      <use
         xlink:href="#province-lubelskie"
         id="use3510" />
    </g>
    <text
       id="province-lubelskie-field"
       style="text-anchor: middle"
       transform="matrix( 1, 0, 0, 1, -5, 8)"
       class="provinceNames">Lubelskie</text>
  </g>
  <g
     transform="matrix( 1, 0, 0, 1, 50.05,164.5) "
     id="g3513"
     ng-click="svg.afterClicked($event);">
    <g
       transform="matrix( 1, 0, 0, 1, 0,0) "
       id="g3515">
      <use
         xlink:href="#province-lubuskie"
         id="use3517" />
    </g>
    <text
       id="province-lubuskie-field"
       style="text-anchor: middle"
       transform="matrix( 1, 0, 0, 1, -5, 10)"
       class="provinceNames">Lubuskie</text>
  </g>
  <g
     transform="matrix( 1, 0, 0, 1, 204.95,209.2) "
     id="g3520"
     ng-click="svg.afterClicked($event);">
    <g
       transform="matrix( 1, 0, 0, 1, 0,0) "
       id="g3522">
      <use
         xlink:href="#province-lodzkie"
         id="use3524" />
    </g>
    <text
       id="province-lodzkie-field"
       style="text-anchor: middle"
       transform="matrix( 1, 0, 0, 1, 5, 5)"
       class="provinceNames">Łódzkie</text>
  </g>
  <g
     transform="matrix( 1, 0, 0, 1, 242.6,321.5) "
     id="g3527"
     ng-click="svg.afterClicked($event);">
    <g
       transform="matrix( 1, 0, 0, 1, 0,0) "
       id="g3529">
      <use
         xlink:href="#province-malopolskie"
         id="use3531" />
    </g>
    <text
       id="province-malopolskie-field"
       style="text-anchor: middle"
       transform="matrix( 1, 0, 0, 1, 0, 3)"
       class="provinceNames">Małopolskie</text>
  </g>
  <g
     transform="matrix( 1, 0, 0, 1, 277.55,166.25) "
     id="g3534"
     ng-click="svg.afterClicked($event);">
    <g
       id="g3536"
       transform="matrix( 1, 0, 0, 1, 0,0) ">
      <use
         xlink:href="#province-mazowieckie"
         id="use3538" />
    </g>
    <text
       id="province-mazowieckie-field"
       style="text-anchor: middle"
       transform="matrix( 1, 0, 0, 1, -5, -10)"
       class="provinceNames">Mazowieckie</text>
  </g>
  <g
     transform="matrix( 1, 0, 0, 1, 141.1,274.35) "
     id="g3541"
     ng-click="svg.afterClicked($event);">
    <g
       transform="matrix( 1, 0, 0, 1, 0,0) "
       id="g3543">
      <use
         xlink:href="#province-opolskie"
         id="use3545" />
    </g>
    <text
       id="province-opolskie-field"
       style="text-anchor: middle"
       transform="matrix( 1, 0, 0, 1, 5, 0)"
       class="provinceNames">Opolskie</text>
  </g>
  <g
     transform="matrix( 1, 0, 0, 1, 327.15,314.65) "
     id="g3548"
     ng-click="svg.afterClicked($event);">
    <g
       transform="matrix( 1, 0, 0, 1, 0,0) "
       id="g3550">
      <use
         xlink:href="#province-podkarpackie"
         id="use3552" />
    </g>
    <text
       id="province-podkarpackie-field"
       style="text-anchor: middle"
       transform="matrix( 1, 0, 0, 1, -5, 5)"
       class="provinceNames">Podkarpackie</text>
  </g>
  <g
     transform="matrix( 1, 0, 0, 1, 336.5,92.9) "
     id="g3555"
     ng-click="svg.afterClicked($event);"
     >
    <g
       transform="matrix( 1, 0, 0, 1, 0,0) "
       id="g3557">
      <use
         xlink:href="#province-podlaskie"
         id="use3559" />
    </g>
    <text
       id="province-podlaskie-field"
       style="text-anchor: middle"
       transform="matrix( 1, 0, 0, 1, 5, 15)"
       class="provinceNames">Podlaskie</text>
  </g>
  <g
     transform="matrix( 1, 0, 0, 1, 157.35,44.05) "
     id="g3562"
     ng-click="svg.afterClicked($event);">
    <g
       transform="matrix( 1, 0, 0, 1, 0,0) "
       id="g3564">
      <use
         xlink:href="#province-pomorskie"
         id="use3566" />
    </g>
    <text
       id="province-pomorskie-field"
       style="text-anchor: middle"
       transform="matrix( 1, 0, 0, 1, -8, 5)"
       class="provinceNames">Pomorskie</text>
  </g>
  <g
     transform="matrix( 1, 0, 0, 1, 191.15,297.25) "
     id="g3569"
     ng-click="svg.afterClicked($event);">
    <g
       transform="matrix( 1, 0, 0, 1, 0,0) "
       id="g3571">
      <use
         xlink:href="#province-slaskie"
         id="use3573" />
    </g>
    <text
       id="province-slaskie-field"
       style="text-anchor: middle"
       transform="matrix( 1, 0, 0, 1, -5, 0)"
       class="provinceNames">Śląskie</text>
  </g>
  <g
     transform="matrix( 1, 0, 0, 1, 263.6,262.7) "
     id="g3576"
     ng-click="svg.afterClicked($event);">
    <g
       transform="matrix( 1, 0, 0, 1, 0,0) "
       id="g3578">
      <use
         xlink:href="#province-swietokrzyskie"
         id="use3580" />
    </g>
    <text
       id="province-swietokrzyskie-field"
       style="text-anchor: middle"
       transform="matrix( 1, 0, 0, 1, 0, 7)"
       class="provinceNames">Świętokrzyskie</text>
  </g>
  <g
     transform="matrix( 1, 0, 0, 1, 263.95,67.3) "
     id="g3583"
     ng-click="svg.afterClicked($event);">
    <g
       transform="matrix( 1, 0, 0, 1, 0,0) "
       id="g3585">
      <use
         xlink:href="#province-warminsko_mazurskie"
         id="use3587" />
    </g>
    <text
       id="province-warminsko_mazurskie-field"
       style="text-anchor: middle"
       transform="matrix( 1, 0, 0, 1, 0, 0)"
       class="provinceNames">Warmińsko-mazurskie</text>
  </g>
  <g
     transform="matrix( 1, 0, 0, 1, 128.9,159.3) "
     id="g3590"
     ng-click="svg.afterClicked($event);">
    <g
       transform="matrix( 1, 0, 0, 1, 0,0) "
       id="g3592">
      <use
         xlink:href="#province-wielkopolskie"
         id="use3594" />
    </g>
    <text
       id="province-wielkopolskie-field"
       style="text-anchor: middle"
       transform="matrix( 1, 0, 0, 1, 0,15)"
       class="provinceNames">Wielkopolskie</text>
  </g>
  <g
     transform="matrix( 1, 0, 0, 1, 56.15,77.9) "
     id="g3597"
     ng-click="svg.afterClicked($event);">
    <g
       transform="matrix( 1, 0, 0, 1, 0,0)"
       id="g3599">
      <use
         xlink:href="#province-zachodniopomorskie"
         id="use3601" />
    </g>
 <!--    <g>
      <use xlink:href="#province-zachodniopomorskie"
        />
    </g> -->
    <text
       id="province-zachodniopomorskie-field"
       style="text-anchor: middle"
       class="provinceNames">Zachodniopomorskie</text>
  </g>

  <g id="dots" drawing-directive="">

  </g>


  <g id="hugeDots" transform="matrix( 1, 0, 0, 1, 0, 0)" >

  </g>

 
  <g id="lastPath" class="zoom" >
    <use id="zoomed" transform="matrix( 1, 0, 0, 1, 0, 0)" xlink:href="" ng-click="svg.afterClicked($event);" />
    <use id="zoomedDots" xlink:href="" class=""  transform="matrix( 1, 0, 0, 1, 0, 0)" city-form=""/>
  </g>




</svg>
